<svg width="1032" height="728" xmlns="http://www.w3.org/2000/svg" xmlns:xlink="http://www.w3.org/1999/xlink"><svg width="13" height="14" x="899" y="664" xmlns="http://www.w3.org/2000/svg"><g fill="none"><path d="M4.197 8.406c.472 0 .855.396.855.886v3.801c0 .49-.383.886-.855.886-.473 0-.856-.397-.856-.886V9.292c0-.49.383-.886.856-.886z" fill="#323345"/><path d="M2.244 3.836a1.216 1.216 0 0 0-.005.102v5.759c0 .62.473 1.118 1.06 1.118h5.653c.587 0 1.06-.499 1.06-1.118v-5.76c0-.034-.001-.068-.004-.101H2.244z" fill="#323345"/><path d="M8.055 8.406c.472 0 .855.396.855.886v3.801c0 .49-.383.886-.855.886-.473 0-.856-.397-.856-.886V9.292c0-.49.383-.886.856-.886zM.865 4.348c.472 0 .855.397.855.886v3.801c0 .49-.383.887-.855.887S.01 9.525.01 9.036V5.234c0-.489.383-.886.855-.886zm10.521 0c.472 0 .855.397.855.886v3.801c0 .49-.383.887-.855.887s-.855-.397-.855-.886V5.234c0-.489.383-.886.855-.886zm-9.117-.89C2.293 1.687 3.783.237 5.696.046h.86c1.912.191 3.402 1.642 3.426 3.41H2.269z" fill="#323345"/><path d="M4.977 1.872a.445.445 0 0 1-.441.45.445.445 0 0 1-.444-.447v-.003c0-.247.197-.448.441-.449.244 0 .443.2.444.447v.002zm3.302 0a.445.445 0 0 1-.441.45.445.445 0 0 1-.444-.447v-.003c0-.247.197-.448.442-.449.244 0 .442.2.443.447v.002z" fill="#FFF"/></g></svg><svg width="12" height="7" x="664" y="324" xmlns="http://www.w3.org/2000/svg"><defs><path id="a" d="M0 0h24v24H0z"/><linearGradient x1="0%" y1="100%" x2="98.469%" y2="1.531%" id="b"><stop stop-color="#CA327E" offset="0%"/><stop stop-color="#F73455" offset="100%"/></linearGradient></defs><g transform="matrix(1 0 0 -1 -6 18)" fill="none" fill-rule="evenodd"><mask id="c" fill="#fff"><use xlink:href="#a"/></mask><use fill-opacity="0" fill="#D8D8D8" xlink:href="#a"/><path d="M14 14V9a1 1 0 0 1 2 0v6a1 1 0 0 1-1 1H9a1 1 0 0 1 0-2h5z" fill="url(#b)" mask="url(#c)" transform="rotate(45 12 12)"/></g></svg><svg width="552" height="340" xmlns="http://www.w3.org/2000/svg"><rect x="32" y="316" width="552" height="340" rx="4" transform="translate(-32 -316)" fill="#D8D8D8" fill-rule="evenodd"/></svg><svg width="64" height="64" x="960" y="404" xmlns="http://www.w3.org/2000/svg"><defs><linearGradient x1="0%" y1="100%" x2="98.469%" y2="1.531%" id="d"><stop stop-color="#CA327E" offset="0%"/><stop stop-color="#F73455" offset="100%"/></linearGradient></defs><g fill="none" fill-rule="evenodd"><rect fill="url(#d)" width="64" height="64" rx="32"/><path d="M43.664 31.208H48v2.5H16v-2.5h4.352c.249-1.186.816-3.692 1.647-6.232 1.706-5.214 3.534-7.643 5.751-7.643 1.797 0 3.62 1.217 4.551 1.946 1.634-1.309 2.947-1.946 4.011-1.946 1.325 0 2.546.914 3.63 2.715.723 1.201 1.426 2.85 2.09 4.9.833 2.569 1.394 5.103 1.632 6.26zm-5.227 4.313c3.033 0 5.5 2.467 5.5 5.5s-2.467 5.5-5.5 5.5a5.506 5.506 0 0 1-5.458-6.176l-1.236-.618-1.343.656a5.506 5.506 0 0 1-5.463 6.138 5.506 5.506 0 0 1-5.5-5.5c0-3.033 2.468-5.5 5.5-5.5a5.5 5.5 0 0 1 4.607 2.498l2.213-1.08 2.095 1.048a5.5 5.5 0 0 1 4.586-2.466z" fill="#FFF" fill-rule="nonzero"/></g></svg><svg width="37" height="48" x="544" y="664" xmlns="http://www.w3.org/2000/svg"><defs><linearGradient x1="0%" y1="100%" y2="0%" id="e"><stop stop-color="#3ABFFF" offset="0%"/><stop stop-color="#90DFAA" offset="100%"/></linearGradient></defs><path d="M92.42 0C82.265 0 74 8.263 74 18.42a18.33 18.33 0 0 0 3.966 11.407L92.421 48l14.454-18.173a18.33 18.33 0 0 0 3.966-11.406C110.841 8.263 102.578 0 92.421 0zm0 26.466c-4.571 0-8.291-3.72-8.291-8.291 0-4.572 3.72-8.292 8.292-8.292 4.572 0 8.291 3.72 8.291 8.292 0 4.572-3.72 8.291-8.291 8.291z" transform="translate(-74)" fill="url(#e)"/></svg><svg width="56" height="48" x="384" y="664" xmlns="http://www.w3.org/2000/svg"><defs><linearGradient x1="0%" y1="100%" y2="0%" id="f"><stop stop-color="#3ABFFF" offset="0%"/><stop stop-color="#90DFAA" offset="100%"/></linearGradient></defs><path d="M236.18 0h-31.34C198.314 0 193 5.429 193 12.1v11.985c0 6.67 5.313 12.1 11.84 12.1h19.809L239.049 48V35.82c5.208-1.327 8.971-6.122 8.971-11.735V12.099C248.02 5.43 242.708 0 236.18 0zm-30.51 23.26c-1.402 0-2.65-.305-3.46-.743l.59-2.388c.614.373 1.885.811 2.87.811 1.008 0 1.424-.35 1.424-.898 0-.55-.329-.811-1.576-1.228-2.213-.745-3.068-1.95-3.046-3.22 0-1.993 1.71-3.504 4.359-3.504 1.249 0 2.367.283 3.024.612l-.591 2.3c-.482-.263-1.402-.614-2.322-.614-.812 0-1.272.33-1.272.877 0 .503.417.767 1.732 1.227 2.036.7 2.89 1.731 2.913 3.308 0 1.993-1.577 3.46-4.645 3.46zm22.848-.218h-3.243v-5.826c0-1.557-.505-2.455-1.578-2.455-.766 0-1.315.525-1.533 1.162-.087.24-.13.59-.13.854v6.265h-3.243V17.04c0-1.358-.482-2.278-1.535-2.278-.853 0-1.358.658-1.555 1.206-.109.261-.13.569-.13.832v6.243h-3.243v-7.295c0-1.335-.044-2.475-.087-3.417h2.804l.153 1.445h.065c.46-.678 1.402-1.685 3.242-1.685 1.38 0 2.475.7 2.935 1.816h.044a4.782 4.782 0 0 1 1.38-1.29c.593-.352 1.25-.526 2.039-.526 2.058 0 3.615 1.445 3.615 4.642v6.31zm5.494.218c-1.402 0-2.652-.305-3.461-.743l.591-2.388c.613.373 1.884.811 2.87.811 1.007 0 1.424-.35 1.424-.898 0-.55-.33-.811-1.577-1.228-2.213-.745-3.068-1.95-3.046-3.22 0-1.993 1.71-3.504 4.359-3.504 1.25 0 2.366.283 3.024.612l-.591 2.3c-.482-.263-1.402-.614-2.322-.614-.811 0-1.271.33-1.271.877 0 .503.416.767 1.73 1.227 2.037.7 2.892 1.731 2.914 3.308 0 1.993-1.577 3.46-4.644 3.46z" transform="translate(-193)" fill="url(#f)"/></svg><svg width="48" height="48" x="725" y="664" xmlns="http://www.w3.org/2000/svg"><defs><linearGradient x1="0%" y1="100%" y2="0%" id="g"><stop stop-color="#3ABFFF" offset="0%"/><stop stop-color="#90DFAA" offset="100%"/></linearGradient></defs><path d="M144.531 0h-35.063A6.468 6.468 0 0 0 103 6.468v35.064A6.468 6.468 0 0 0 109.468 48h17.293l.03-17.153h-4.457a1.05 1.05 0 0 1-1.051-1.047l-.021-5.53a1.051 1.051 0 0 1 1.051-1.055h4.448v-5.342c0-6.2 3.787-9.576 9.317-9.576h4.539c.58 0 1.051.471 1.051 1.052v4.662c0 .58-.47 1.051-1.05 1.051l-2.786.002c-3.008 0-3.59 1.429-3.59 3.526v4.626h6.609c.63 0 1.118.55 1.044 1.175l-.655 5.529a1.052 1.052 0 0 1-1.044.927h-5.925L134.242 48h10.29A6.468 6.468 0 0 0 151 41.532V6.468A6.468 6.468 0 0 0 144.53 0z" transform="translate(-103)" fill="url(#g)"/></svg><svg width="48" height="48" x="677" y="664" xmlns="http://www.w3.org/2000/svg"><defs><linearGradient x1="0%" y1="100%" y2="0%" id="h"><stop stop-color="#3ABFFF" offset="0%"/><stop stop-color="#90DFAA" offset="100%"/></linearGradient></defs><path d="M968.302 12877c-.136 0-.266-.005-.364-.01-.079.007-.16.01-.24.01-2.859 0-4.77-1.44-6.456-2.71-1.209-.91-2.349-1.768-3.684-2.005a11.182 11.182 0 0 0-1.939-.174c-1.136 0-2.033.187-2.689.324-.403.084-.75.156-1.02.156-.28 0-.623-.067-.765-.585-.113-.41-.194-.805-.273-1.187-.195-.953-.337-1.535-.672-1.59-3.585-.59-5.703-1.457-6.125-2.508a1.028 1.028 0 0 1-.074-.332.605.605 0 0 1 .481-.64c2.847-.498 5.378-2.101 7.524-4.764 1.662-2.062 2.478-4.032 2.566-4.249a.397.397 0 0 1 .012-.03c.414-.893.496-1.666.246-2.295-.462-1.16-1.992-1.677-3.004-2.019a10.35 10.35 0 0 1-.68-.245c-.896-.378-2.372-1.175-2.175-2.276.143-.803 1.14-1.362 1.945-1.362a1.3 1.3 0 0 1 .589.126c.91.454 1.73.684 2.433.684.876 0 1.3-.355 1.402-.456-.027-.51-.056-1.019-.087-1.528-.205-3.484-.462-7.819.58-10.305 3.115-7.442 9.723-8.02 11.674-8.02l.965-.01c1.956 0 8.578.58 11.696 8.025 1.04 2.488.784 6.827.578 10.314l-.01.167c-.028.474-.054.922-.076 1.356.096.095.483.42 1.27.454.672-.028 1.444-.257 2.293-.68.263-.132.554-.16.751-.16.299 0 .603.062.856.175l.013.005c.721.273 1.193.818 1.203 1.39.01.534-.363 1.331-2.193 2.101-.188.08-.427.16-.68.245-1.013.343-2.541.86-3.003 2.02-.251.628-.168 1.4.245 2.294l.013.03c.128.318 3.21 7.806 10.09 9.013.29.051.497.327.481.64a1.037 1.037 0 0 1-.076.334c-.419 1.045-2.537 1.912-6.122 2.502-.337.055-.479.634-.673 1.583-.08.391-.161.775-.273 1.179-.104.38-.336.565-.71.565h-.055c-.243 0-.587-.047-1.02-.137-.758-.158-1.608-.304-2.69-.304-.63 0-1.282.059-1.938.175-1.334.236-2.474 1.094-3.68 2.002-1.69 1.273-3.602 2.712-6.46 2.712" transform="translate(-944 -12829)" fill="url(#h)"/></svg><svg width="48" height="48" x="629" y="664" xmlns="http://www.w3.org/2000/svg"><defs><linearGradient x1="0%" y1="100%" y2="0%" id="i"><stop stop-color="#3ABFFF" offset="0%"/><stop stop-color="#90DFAA" offset="100%"/></linearGradient></defs><g fill="none" fill-rule="evenodd"><path d="M24 0C10.745 0 0 9.95 0 22.222c0 6.994 3.49 13.231 8.944 17.305V48l8.172-4.485c2.18.604 4.491.93 6.884.93 13.255 0 24-9.95 24-22.223S37.255 0 24 0z" fill="url(#i)" fill-rule="nonzero"/><path fill="#FFF" d="M26.037 29.926l-6.112-6.519L8 29.926 21.118 16l6.26 6.519L39.156 16z"/></g></svg><svg width="48" height="48" x="581" y="664" xmlns="http://www.w3.org/2000/svg"><defs><linearGradient x1="0%" y1="100%" y2="0%" id="j"><stop stop-color="#3ABFFF" offset="0%"/><stop stop-color="#90DFAA" offset="100%"/></linearGradient></defs><g fill="none" fill-rule="evenodd"><rect fill="url(#j)" width="48" height="48" rx="24"/><path d="M32.686 15.026C30.478 13.009 27.732 12 24.452 12c-3.448 0-6.387 1.146-8.812 3.442-2.425 2.296-3.64 5.15-3.64 8.568 0 3.275 1.156 6.09 3.462 8.45C17.78 34.82 20.891 36 24.808 36c2.36 0 4.677-.48 6.95-1.444a1.464 1.464 0 0 0 .8-1.895 1.481 1.481 0 0 0-1.957-.793c-1.975.842-3.912 1.263-5.798 1.263-3.003 0-5.33-.906-6.98-2.722-1.644-1.812-2.47-3.941-2.47-6.385 0-2.653.885-4.866 2.648-6.643 1.759-1.773 3.927-2.664 6.495-2.664 2.366 0 4.367.73 5.997 2.189s2.445 3.295 2.445 5.508c0 1.513-.376 2.776-1.122 3.78-.745 1.008-1.52 1.507-2.326 1.507-.435 0-.652-.23-.652-.695 0-.377.03-.818.084-1.327l.919-7.446H26.68l-.203.73c-.805-.652-1.69-.98-2.647-.98-1.522 0-2.826.602-3.907 1.802-1.087 1.2-1.625 2.746-1.625 4.636 0 1.846.479 3.34 1.442 4.47.963 1.136 2.119 1.699 3.472 1.699 1.21 0 2.243-.504 3.102-1.508.647.965 1.6 1.444 2.86 1.444 1.852 0 3.452-.798 4.8-2.399C35.325 26.531 36 24.602 36 22.345c0-2.86-1.101-5.302-3.314-7.32zm-7.28 11.265c-.559.744-1.226 1.121-2.001 1.121-.529 0-.953-.274-1.275-.822-.326-.548-.489-1.229-.489-2.047 0-1.008.228-1.82.682-2.438.455-.617 1.018-.93 1.69-.93.582 0 1.1.23 1.555.695.455.465.682 1.082.682 1.856a4.213 4.213 0 0 1-.845 2.565z" fill="#FFF" fill-rule="nonzero"/></g></svg><svg width="48" height="48" x="496" y="664" xmlns="http://www.w3.org/2000/svg"><defs><linearGradient x1="0%" y1="100%" y2="0%" id="k"><stop stop-color="#3ABFFF" offset="0%"/><stop stop-color="#90DFAA" offset="100%"/></linearGradient></defs><g fill="none" fill-rule="evenodd"><path d="M41.142 13.211h-5.583c0-8.141-6.686-8.141-11.566-8.141-6.064 0-8.54-.453-8.54-5.07h-3.014c0 8.13 6.688 8.13 11.553 8.13 6.077 0 8.539.464 8.539 5.082H6.857C3.085 13.212 0 16.342 0 20.168v20.874C0 44.868 3.085 48 6.857 48h34.285C44.915 48 48 44.868 48 41.042V20.168c-.001-3.826-3.086-6.957-6.858-6.957z" fill="url(#k)" fill-rule="nonzero"/><rect fill="#FFF" x="3.429" y="37.714" width="6.857" height="6.857" rx="1"/><rect fill="#FFF" x="37.714" y="37.714" width="6.857" height="6.857" rx="1"/><g transform="translate(3.429 27.429)" fill="#FFF"><rect x="25.714" width="6.857" height="6.857" rx="1"/><rect x="34.286" width="6.857" height="6.857" rx="1"/><rect width="6.857" height="6.857" rx="1"/><rect x="8.571" width="6.857" height="6.857" rx="1"/><rect x="17.143" width="6.857" height="6.857" rx="1"/></g><g transform="translate(3.429 17.143)" fill="#FFF"><rect x="25.714" width="6.857" height="6.857" rx="1"/><rect x="34.286" width="6.857" height="6.857" rx="1"/><rect width="6.857" height="6.857" rx="1"/><rect x="8.571" width="6.857" height="6.857" rx="1"/><rect x="17.143" width="6.857" height="6.857" rx="1"/></g><rect fill="#FFF" x="13.714" y="37.714" width="20.571" height="6.857" rx="1"/></g></svg><svg width="56" height="48" x="440" y="664" xmlns="http://www.w3.org/2000/svg"><defs><linearGradient x1="0%" y1="100%" x2="98.469%" y2="1.531%" id="l"><stop stop-color="#CA327E" offset="0%"/><stop stop-color="#F73455" offset="100%"/></linearGradient></defs><path d="M992.56 14933.97c3.294.63 5.791 3.53 5.791 7.005 0 3.934-3.2 7.135-7.135 7.135h-3.652v-14.27h1.512c-2.916-7.513-10.201-12.597-18.4-12.597-8.2 0-15.485 5.084-18.4 12.597h1.511v14.27h-1.512a19.734 19.734 0 0 0 5.392 7.69 19.633 19.633 0 0 0 8.814 4.459 4.386 4.386 0 0 1 4.195-3.123 4.383 4.383 0 0 1 4.378 4.378 4.383 4.383 0 0 1-4.378 4.378 4.38 4.38 0 0 1-3.831-2.262 22.85 22.85 0 0 1-11.319-5.393 22.94 22.94 0 0 1-6.735-10.256c-3.294-.63-5.791-3.531-5.791-7.006s2.497-6.375 5.791-7.006c3.03-9.457 11.872-15.969 21.885-15.969 10.012 0 18.855 6.512 21.884 15.97zm-21.884-8.315c8.447 0 15.32 6.872 15.32 15.32 0 8.447-6.873 15.32-15.32 15.32-8.448 0-15.32-6.873-15.32-15.32s6.872-15.32 15.32-15.32z" transform="translate(-943 -14918)" fill="url(#l)"/></svg><svg width="65" height="64" x="960" y="340" xmlns="http://www.w3.org/2000/svg"><defs><linearGradient x1="0%" y1="100%" x2="98.469%" y2="1.531%" id="m"><stop stop-color="#CA327E" offset="0%"/><stop stop-color="#F73455" offset="100%"/></linearGradient></defs><g transform="translate(-687 -15757)" fill="url(#m)"><path d="M743.22 15781.108h-4.016v10.039c0 5.544-4.496 10.04-10.04 10.04h-18.07v4.015a8.032 8.032 0 0 0 8.031 8.031h12.048l8.754 7.289a2.008 2.008 0 0 0 3.293-1.546v-5.743a8.032 8.032 0 0 0 8.031-8.031v-16.063a8.032 8.032 0 0 0-8.031-8.031z"/><path d="M727.157 15757.014H695.03a8.032 8.032 0 0 0-8.03 8.03v24.096a8.032 8.032 0 0 0 8.031 8.031v7.69a2.009 2.009 0 0 0 3.313 1.526l10.742-9.216h18.07a8.032 8.032 0 0 0 8.032-8.031v-24.095a8.032 8.032 0 0 0-8.031-8.031zm-25.279 22.909a2.83 2.83 0 0 1-.602.502 4.457 4.457 0 0 1-.683.381 5.34 5.34 0 0 1-.763.221 3.54 3.54 0 0 1-.783.08 4.015 4.015 0 0 1-4.016-4.015 4.016 4.016 0 0 1 4.8-4.016c.258.055.513.129.762.221.243.1.472.227.683.382.219.138.42.299.602.482a4.02 4.02 0 0 1 1.185 2.931 4.008 4.008 0 0 1-1.185 2.831zm12.047 0a4.008 4.008 0 0 1-2.83 1.185c-.262.03-.523.03-.784 0a5.34 5.34 0 0 1-.763-.221 4.457 4.457 0 0 1-.683-.382 3.646 3.646 0 0 1-.622-.502 4.016 4.016 0 0 1-1.165-2.911 3.405 3.405 0 0 1 0-.783 5.34 5.34 0 0 1 .221-.763c.1-.243.227-.472.382-.683.142-.22.305-.43.482-.622.192-.177.401-.34.622-.482.21-.155.44-.281.683-.382.273-.124.554-.224.843-.3a4.016 4.016 0 0 1 4.799 4.015 4.02 4.02 0 0 1-1.165 2.831h-.02zm12.047 0a2.83 2.83 0 0 1-.602.502 4.457 4.457 0 0 1-.683.381 5.34 5.34 0 0 1-.763.221 3.54 3.54 0 0 1-.783.08 4.015 4.015 0 0 1-4.016-4.015 4.016 4.016 0 0 1 4.8-4.016c.258.055.513.129.762.221.243.1.472.227.683.382.219.138.42.299.602.482a4.02 4.02 0 0 1 1.185 2.931 4.008 4.008 0 0 1-1.185 2.831z"/></g></svg><svg width="40" height="48" x="773" y="664" xmlns="http://www.w3.org/2000/svg"><path d="M21.59 4.177C24.745.02 29.13 0 29.13 0s.651 3.908-2.482 7.673c-3.345 4.02-7.148 3.362-7.148 3.362s-.714-3.162 2.09-6.858zm-1.689 9.596c1.623 0 4.634-2.23 8.554-2.23 6.746 0 9.4 4.8 9.4 4.8s-5.19 2.654-5.19 9.094c0 7.265 6.466 9.769 6.466 9.769S34.611 47.93 28.505 47.93c-2.805 0-4.985-1.89-7.94-1.89-3.011 0-6 1.96-7.945 1.96C7.044 48 0 35.93 0 26.229c0-9.546 5.962-14.553 11.555-14.553 3.635 0 6.456 2.097 8.346 2.097z" fill="#FFF"/></svg><svg width="64" height="64" x="320" y="664" xmlns="http://www.w3.org/2000/svg"><defs><linearGradient x1="0%" y1="100%" x2="98.469%" y2="1.531%" id="n"><stop stop-color="#CA327E" offset="0%"/><stop stop-color="#F73455" offset="100%"/></linearGradient></defs><path d="M256 0c-17.645 0-32 14.355-32 32s14.355 32 32 32c17.644 0 32-14.355 32-32S273.645 0 256 0zm18.375 26.595L254.27 46.699a4.495 4.495 0 0 1-3.2 1.325 4.495 4.495 0 0 1-3.2-1.325l-10.246-10.246a4.496 4.496 0 0 1-1.326-3.2c0-1.21.471-2.346 1.326-3.2a4.494 4.494 0 0 1 3.2-1.326c1.209 0 2.345.47 3.2 1.326l7.046 7.045 16.903-16.903a4.495 4.495 0 0 1 3.2-1.326c1.209 0 2.345.47 3.2 1.326a4.53 4.53 0 0 1 0 6.4z" transform="translate(-224)" fill="url(#n)"/></svg><svg width="64" height="64" x="256" y="664" xmlns="http://www.w3.org/2000/svg"><defs><linearGradient x1="0%" y1="100%" y2="0%" id="o"><stop stop-color="#3ABFFF" offset="0%"/><stop stop-color="#90DFAA" offset="100%"/></linearGradient></defs><g fill="none"><path d="M32 0C14.355 0 0 14.355 0 32s14.355 32 32 32c17.644 0 32-14.355 32-32S49.645 0 32 0z" fill="url(#o)"/><path d="M42.754 48H20.327c-.717 0-1.298-.58-1.298-1.297V17.297c0-.716.581-1.297 1.298-1.297h22.427c.717 0 1.298.58 1.298 1.297v29.406c0 .716-.581 1.297-1.298 1.297zm-21.13-2.595h19.833v-26.81H21.624v26.81z" fill="#FFF"/><path d="M30.918 41.645h-6.23a1.297 1.297 0 0 1 0-2.594h6.23a1.297 1.297 0 0 1 0 2.594zm7.476-4.984H24.688a1.297 1.297 0 0 1 0-2.594h13.706a1.297 1.297 0 1 1 0 2.594zm0-4.984H24.688c-.717 0-1.298-.58-1.298-1.297v-8.722c0-.716.581-1.297 1.297-1.297h13.707c.716 0 1.297.58 1.297 1.297v8.722c0 .717-.581 1.297-1.297 1.297zm-12.41-2.594h11.112v-6.128H25.985v6.128z" fill="#FFF"/></g></svg><svg width="64" height="64" x="128" y="664" xmlns="http://www.w3.org/2000/svg"><g fill="#FFF" fill-rule="evenodd"><path d="M32 0c17.673 0 32 14.327 32 32 0 17.673-14.327 32-32 32C14.327 64 0 49.673 0 32 0 14.327 14.327 0 32 0zm16.72 44.778c1.127-1.944 1.134-4.261.015-6.199L37.499 19.121C36.387 17.162 34.378 16 32.125 16a6.127 6.127 0 0 0-5.374 3.114l-11.25 19.48a6.174 6.174 0 0 0 .021 6.235 6.14 6.14 0 0 0 5.36 3.078h22.443c2.246 0 4.262-1.17 5.396-3.129z"/><path d="M32.026 36.463c1.447 0 2.64.8 2.577 1.811.064.92-1.193 1.726-2.577 1.726-1.436 0-2.64-.806-2.64-1.768s1.204-1.769 2.64-1.769zm-.654-12.413c1.256-.198 2.513.205 3.052.997.18.283.243.566.243.884-.064.885-.18 1.769-.243 2.653-.116 1.365-.243 2.73-.36 4.095-.063.446-.063.849-.063 1.288-.052.728-.897 1.287-1.975 1.287-1.077 0-1.911-.524-1.975-1.245-.18-2.129-.359-4.216-.538-6.345-.063-.558-.116-1.124-.18-1.683 0-.927.782-1.69 2.039-1.931z" fill-rule="nonzero"/></g></svg><svg width="42" height="48" x="813" y="664" xmlns="http://www.w3.org/2000/svg"><defs><linearGradient x1="0%" y1="100%" x2="98.469%" y2="1.531%" id="p"><stop stop-color="#CA327E" offset="0%"/><stop stop-color="#F73455" offset="100%"/></linearGradient></defs><g fill="none"><path d="M14.388 28.82c1.62 0 2.932 1.36 2.932 3.038V44.89c0 1.678-1.313 3.038-2.932 3.038s-2.932-1.36-2.932-3.038V31.858c0-1.678 1.313-3.038 2.932-3.038z" fill="#FFF"/><path d="M7.695 13.15a4.08 4.08 0 0 0-.018.35v19.746c0 2.123 1.622 3.834 3.635 3.834h19.379c2.014 0 3.636-1.71 3.636-3.834V13.5c0-.117-.004-.234-.014-.35H7.695z" fill="#FFF"/><path d="M27.616 28.82c1.619 0 2.932 1.36 2.932 3.038V44.89c0 1.678-1.313 3.038-2.932 3.038-1.62 0-2.932-1.36-2.932-3.038V31.858c0-1.678 1.313-3.038 2.932-3.038zM2.966 14.908c1.619 0 2.931 1.36 2.931 3.038V30.98c0 1.678-1.312 3.038-2.931 3.038-1.62 0-2.932-1.36-2.932-3.038V17.946c0-1.677 1.312-3.038 2.932-3.038zm36.072 0c1.62 0 2.932 1.36 2.932 3.038V30.98c0 1.678-1.313 3.038-2.932 3.038-1.62 0-2.932-1.36-2.932-3.038V17.946c0-1.677 1.313-3.038 2.932-3.038zM7.78 11.854C7.862 5.789 12.97.816 19.528.16h2.947c6.558.655 11.666 5.628 11.748 11.693H7.78z" fill="#FFF"/><path d="M17.063 6.419a1.526 1.526 0 0 1-1.512 1.539 1.526 1.526 0 0 1-1.522-1.53v-.01a1.526 1.526 0 0 1 1.513-1.539 1.526 1.526 0 0 1 1.521 1.531v.009zm11.323 0a1.526 1.526 0 0 1-1.513 1.539 1.526 1.526 0 0 1-1.52-1.53v-.01a1.526 1.526 0 0 1 1.512-1.539 1.526 1.526 0 0 1 1.52 1.531v.009z" fill="url(#p)"/></g></svg><svg width="64" height="64" x="64" y="664" xmlns="http://www.w3.org/2000/svg"><defs><linearGradient x1="0%" y1="100%" x2="98.469%" y2="1.531%" id="q"><stop stop-color="#CA327E" offset="0%"/><stop stop-color="#F73455" offset="100%"/></linearGradient></defs><g fill="none" fill-rule="evenodd"><rect fill="url(#q)" width="64" height="64" rx="32"/><path d="M45.045 40.12a50.761 50.761 0 0 0-7.332-4.49.272.272 0 0 1-.156-.248V32.41c.456-.775.749-1.59.86-2.333.332-.026.762-.489 1.232-2.144.638-2.262-.04-2.594-.613-2.542.11-.313.196-.62.248-.932.977-5.859-1.91-6.061-1.91-6.061s-.476-.919-1.74-1.616c-.84-.502-2.02-.887-3.565-.756a5.282 5.282 0 0 0-1.42.273 6.562 6.562 0 0 0-1.565.802 8.204 8.204 0 0 0-1.61 1.33c-.762.782-1.447 1.792-1.74 3.05-.248.938-.189 1.922.013 2.978.059.306.137.62.248.932-.574-.052-1.258.28-.613 2.542.47 1.655.906 2.118 1.232 2.144.117.75.41 1.577.86 2.36v2.945a.272.272 0 0 1-.156.248 50.127 50.127 0 0 0-7.332 4.49 6.62 6.62 0 0 0-2.653 5.312v.801c0 .945.77 1.714 1.714 1.714H45.97c.945 0 1.714-.769 1.714-1.714v-.801a6.527 6.527 0 0 0-2.64-5.312z" fill="#FFF" fill-rule="nonzero"/></g></svg><svg width="64" height="64" x="192" y="664" xmlns="http://www.w3.org/2000/svg"><defs><linearGradient x1="0%" y1="100%" x2="98.469%" y2="1.531%" id="r"><stop stop-color="#CA327E" offset="0%"/><stop stop-color="#F73455" offset="100%"/></linearGradient></defs><g fill="none" fill-rule="evenodd"><rect fill="url(#r)" width="64" height="64" rx="32"/><path d="M39.4 16H25.134a2.167 2.167 0 0 0-2.162 2.161v27.677c0 1.19.973 2.162 2.162 2.162H39.4a2.167 2.167 0 0 0 2.162-2.161V18.16c0-1.189-.973-2.16-2.162-2.16zm-9.415 1.558h4.564a.262.262 0 0 1 0 .524h-4.564a.262.262 0 1 1 0-.524zm2.282 29.361a1.08 1.08 0 1 1 0-2.161 1.08 1.08 0 0 1 0 2.161zM40.057 44h-15.58V19.428h15.58V44z" fill="#FFF" fill-rule="nonzero"/></g></svg><svg width="64" height="64" y="664" xmlns="http://www.w3.org/2000/svg"><defs><linearGradient x1="0%" y1="100%" x2="98.469%" y2="1.531%" id="s"><stop stop-color="#CA327E" offset="0%"/><stop stop-color="#F73455" offset="100%"/></linearGradient></defs><g fill="none" fill-rule="evenodd"><rect fill="url(#s)" width="64" height="64" rx="32"/><path d="M21.333 26.666h5.333v-5.333h-5.333zm8 16h5.333v-5.333h-5.333zm-8 0h5.333v-5.333h-5.333zm0-8h5.333v-5.333h-5.333zm8 0h5.333v-5.333h-5.333zm8-13.333v5.333h5.333v-5.333zm-8 5.333h5.333v-5.333h-5.333zm8 8h5.333v-5.333h-5.333zm0 8h5.333v-5.333h-5.333z" fill="#FFF"/></g></svg><svg width="64" height="64" x="960" y="596" xmlns="http://www.w3.org/2000/svg"><defs><linearGradient x1="0%" y1="100%" x2="98.469%" y2="1.531%" id="t"><stop stop-color="#CA327E" offset="0%"/><stop stop-color="#F73455" offset="100%"/></linearGradient></defs><g fill="none" fill-rule="evenodd"><rect fill="url(#t)" width="64" height="64" rx="32"/><g fill="#FFF" fill-rule="nonzero"><path d="M40.493 38.197a4.177 4.177 0 0 0-.917-.102c-2.124 0-4.08 1.616-4.599 3.96-.593 2.68.916 5.296 3.37 5.844.307.068.613.1.917.1 2.125 0 4.08-1.615 4.599-3.96.592-2.679-.916-5.295-3.37-5.842zm1.999-16.141a4.14 4.14 0 0 0 .404-.643c.968-1.908.323-4.171-1.439-5.057A3.332 3.332 0 0 0 39.953 16c-1.279 0-2.553.715-3.29 1.942a15.806 15.806 0 0 0-4.863-.751c-1.82 0-3.545.295-5.086.823-.729-1.27-2.028-2.014-3.332-2.014-.511 0-1.024.115-1.502.356-1.763.886-2.407 3.15-1.439 5.057.154.305.343.577.554.824-.643 1.044-1.004 2.198-1.004 3.413 0 4.672 5.287 8.458 11.81 8.458 6.52 0 11.809-3.786 11.809-8.458 0-1.285-.402-2.503-1.118-3.594zM26.467 24a1.143 1.143 0 1 1 2.285-.001 1.143 1.143 0 0 1-2.285 0zm5.334 7.62c-2.314 0-4.19-1.366-4.19-3.049 0-1.249 1.035-2.322 2.514-2.792a1.886 1.886 0 0 0-.229.887 1.906 1.906 0 0 0 3.81 0c0-.322-.088-.621-.23-.887 1.48.47 2.515 1.543 2.515 2.792 0 1.683-1.876 3.048-4.19 3.048zm4.19-6.477a1.144 1.144 0 1 1 .002-2.288 1.144 1.144 0 0 1-.002 2.288zm-7.367 16.913c-.519-2.345-2.474-3.96-4.599-3.96-.303 0-.61.032-.917.101-2.453.547-3.962 3.163-3.369 5.843.518 2.344 2.474 3.96 4.599 3.96.303 0 .61-.033.916-.101 2.454-.548 3.963-3.164 3.37-5.843z"/><path d="M45.092 34.092l-2.731-1.802c-.342.31-.707.608-1.101.89-2.551 1.827-5.911 2.833-9.46 2.833-3.549 0-6.908-1.006-9.46-2.834a12.296 12.296 0 0 1-1.142-.928l-2.79 1.841c-1.4.924-1.82 2.776-.936 4.116.312.473.75.82 1.244 1.032.874-1.44 2.264-2.52 3.976-2.902a6.143 6.143 0 0 1 1.333-.147c3.044 0 5.76 2.293 6.46 5.453a7.153 7.153 0 0 1-.24 3.96 11.165 11.165 0 0 0 3.112 0 7.15 7.15 0 0 1-.24-3.96c.7-3.16 3.416-5.453 6.459-5.453.447 0 .895.05 1.333.147 1.697.379 3.078 1.446 3.953 2.867.463-.215.87-.549 1.167-.997.884-1.34.462-3.192-.937-4.116z"/></g></g></svg><svg width="64" height="64" x="960" y="532" xmlns="http://www.w3.org/2000/svg"><defs><linearGradient x1="0%" y1="100%" x2="98.469%" y2="1.531%" id="u"><stop stop-color="#CA327E" offset="0%"/><stop stop-color="#F73455" offset="100%"/></linearGradient></defs><g fill="none" fill-rule="evenodd"><rect fill="#FFF" width="64" height="64" rx="32"/><path d="M41.581 40.693s-.025.027-.072.072c-2.685-1.075-5.681-.286-8.025-2.388-2.368-2.124-4.157-5.457-6.117-7.979-2.157-2.776-4.38-5.5-6.64-8.191-1.609-1.914-3.084-4.128-5.147-5.579-.292-.573-.556-.81-1.024-.473a.64.64 0 0 0-.454.434c-.266.301-.583.725-.976 1.298-2.67 3.904-3.081 7.293-1.643 11.198 1.438 3.903 1.13 17.669 1.13 17.669s.617.821 1.233.41c.617-.41-.821-13.457.309-14.998 0 0 4.828-2.672 8.937 6.472 4.11 9.142 6.061 9.347 8.938 9.347 2.877 0 11.3.206 17.464-.925 6.162-1.13 2.464-3.389-7.913-6.367zm-9.347 1.54c-3.698-4.315-12.636-19.21-14.895-22.292a3.627 3.627 0 0 1-.118-.167c1.212 1.36 2.291 2.896 3.387 4.2 2.726 3.246 5.353 6.575 7.927 9.941 1.526 1.996 2.84 4.224 4.722 5.91 2.068 1.856 4.774 1.136 7.2 1.864-1.838 1.456-5.543 3.672-8.223.544z" fill="url(#u)" fill-rule="nonzero"/></g></svg><svg width="64" height="64" x="960" y="468" xmlns="http://www.w3.org/2000/svg"><defs><linearGradient x1="0%" y1="100%" x2="98.469%" y2="1.531%" id="v"><stop stop-color="#CA327E" offset="0%"/><stop stop-color="#F73455" offset="100%"/></linearGradient></defs><g fill="none" fill-rule="evenodd"><rect fill="url(#v)" width="64" height="64" rx="32"/><path d="M47.9 30.223c-.052-.45-.576-.787-1.03-.787-1.466 0-2.767-.861-3.313-2.193a3.564 3.564 0 0 1 .895-3.956.889.889 0 0 0 .097-1.207 15.833 15.833 0 0 0-2.534-2.56.89.89 0 0 0-1.216.098c-.954 1.057-2.667 1.45-3.99.897a3.554 3.554 0 0 1-2.162-3.474.888.888 0 0 0-.785-.934 15.974 15.974 0 0 0-3.6-.01.89.89 0 0 0-.792.915 3.56 3.56 0 0 1-2.19 3.414c-1.309.535-3.01.145-3.962-.902a.892.892 0 0 0-1.207-.101 15.892 15.892 0 0 0-2.588 2.559.89.89 0 0 0 .095 1.216 3.546 3.546 0 0 1 .895 3.992c-.553 1.315-1.918 2.163-3.482 2.163a.87.87 0 0 0-.924.785 16.028 16.028 0 0 0-.007 3.64c.05.45.59.786 1.05.786 1.393-.036 2.73.827 3.291 2.193.56 1.363.2 2.953-.894 3.956a.89.89 0 0 0-.097 1.206 15.89 15.89 0 0 0 2.53 2.56.89.89 0 0 0 1.218-.096c.958-1.059 2.67-1.45 3.99-.897a3.548 3.548 0 0 1 2.164 3.472.889.889 0 0 0 .785.935 15.904 15.904 0 0 0 3.6.01.89.89 0 0 0 .792-.917 3.556 3.556 0 0 1 2.189-3.412c1.317-.537 3.01-.144 3.963.902a.894.894 0 0 0 1.207.1 15.93 15.93 0 0 0 2.588-2.558.888.888 0 0 0-.095-1.216 3.545 3.545 0 0 1-.897-3.992 3.582 3.582 0 0 1 3.274-2.169l.198.005c.458.038.88-.316.936-.784.14-1.203.143-2.427.007-3.639zm-15.875 7.148a5.343 5.343 0 0 1-5.337-5.337 5.343 5.343 0 0 1 5.337-5.337 5.343 5.343 0 0 1 5.337 5.337 5.343 5.343 0 0 1-5.337 5.337z" fill="#FFF" fill-rule="nonzero"/></g></svg><svg width="16" height="16" x="552" y="324" xmlns="http://www.w3.org/2000/svg"><defs><linearGradient x1="0%" y1="100%" x2="98.469%" y2="1.531%" id="w"><stop stop-color="#CA327E" offset="0%"/><stop stop-color="#F73455" offset="100%"/></linearGradient></defs><path d="M0 4V0h4v4H0zm6 12v-4h4v4H6zm-6 0v-4h4v4H0zm0-6V6h4v4H0zm6 0V6h4v4H6zm6-10h4v4h-4V0zM6 4V0h4v4H6zm6 6V6h4v4h-4zm0 6v-4h4v4h-4z" fill="url(#w)" fill-rule="evenodd"/></svg><svg width="16" height="12" x="648" y="324" xmlns="http://www.w3.org/2000/svg"><path d="M13.589.413L5.406 8.592 2.411 5.599A1.412 1.412 0 0 0 .414 7.595l3.993 3.991a1.41 1.41 0 0 0 1.998 0l9.181-9.176A1.412 1.412 0 1 0 13.589.413z" fill="#77C158"/></svg><svg width="12" height="12" x="912" y="664" xmlns="http://www.w3.org/2000/svg"><defs><linearGradient x1="0%" y1="100%" x2="98.469%" y2="1.531%" id="x"><stop stop-color="#CA327E" offset="0%"/><stop stop-color="#F73455" offset="100%"/></linearGradient></defs><path d="M846.13 1408l-3.743-3.742a1.323 1.323 0 0 1 1.871-1.87l3.742 3.741 3.742-3.742a1.323 1.323 0 0 1 1.87 1.871l-3.741 3.742 3.742 3.742a1.323 1.323 0 0 1-1.871 1.87l-3.742-3.741-3.742 3.742a1.323 1.323 0 0 1-1.87-1.871l3.741-3.742z" transform="translate(-842 -1402)" fill="url(#x)" fill-rule="evenodd"/></svg><svg width="16" height="16" x="568" y="324" xmlns="http://www.w3.org/2000/svg"><defs><linearGradient x1="0%" y1="100%" x2="98.469%" y2="1.531%" id="y"><stop stop-color="#CA327E" offset="0%"/><stop stop-color="#F73455" offset="100%"/></linearGradient></defs><path d="M15.328 7.228a1.24 1.24 0 0 0 .284-1.224 1.138 1.138 0 0 0-.907-.813l-3.794-.585a.499.499 0 0 1-.373-.289L8.842.665A1.112 1.112 0 0 0 7.834 0c-.43 0-.817.255-1.007.665L5.13 4.318a.5.5 0 0 1-.373.288l-3.794.586a1.138 1.138 0 0 0-.907.812A1.24 1.24 0 0 0 .34 7.228l2.745 2.843a.55.55 0 0 1 .143.466l-.648 4.014c-.057.354.03.697.245.968a1.09 1.09 0 0 0 1.385.29l3.393-1.895a.481.481 0 0 1 .462 0l3.393 1.896c.165.092.34.139.522.139.332 0 .646-.157.863-.43a1.22 1.22 0 0 0 .245-.968l-.648-4.014a.548.548 0 0 1 .143-.466l2.745-2.843z" fill="url(#y)"/></svg><svg width="16" height="16" x="584" y="324" xmlns="http://www.w3.org/2000/svg"><defs><linearGradient x1="0%" y1="100%" x2="98.469%" y2="1.531%" id="z"><stop stop-color="#CA327E" offset="0%"/><stop stop-color="#F73455" offset="100%"/></linearGradient></defs><g transform="translate(-401 -1254)" fill="url(#z)"><path d="M416.535 1267.418l-3.664-3.665a7.054 7.054 0 0 1-2.118 2.117l3.665 3.665a1.497 1.497 0 1 0 2.117-2.117zm-3.555-7.428a5.99 5.99 0 1 0-11.98 0 5.99 5.99 0 0 0 11.98 0zm-5.99 4.493a4.497 4.497 0 0 1-4.492-4.493 4.498 4.498 0 0 1 4.492-4.492 4.498 4.498 0 0 1 4.493 4.492 4.498 4.498 0 0 1-4.493 4.493z"/><path d="M403.496 1259.99h.998a2.499 2.499 0 0 1 2.496-2.496v-.998a3.499 3.499 0 0 0-3.494 3.494z"/></g></svg><svg width="16" height="14" x="600" y="324" xmlns="http://www.w3.org/2000/svg"><defs><linearGradient x1="0%" y1="100%" x2="98.469%" y2="1.531%" id="A"><stop stop-color="#CA327E" offset="0%"/><stop stop-color="#F73455" offset="100%"/></linearGradient></defs><g transform="translate(-401 -1302)" fill="url(#A)"><path d="M415.785 1302.105h-13.647c-.629 0-1.138.508-1.138 1.135v11.375c0 .627.51 1.137 1.138 1.137h13.647a1.14 1.14 0 0 0 1.138-1.137v-11.375c0-.628-.512-1.136-1.138-1.136zm-11.088.853a.569.569 0 1 1 0 1.138.569.569 0 0 1 0-1.138zm-1.707 0a.569.569 0 1 1 0 1.137.569.569 0 0 1 0-1.137zm12.795 11.658h-13.647v-9.656h13.647v9.656z"/><path d="M407.375 1307.298l-3.652-1.67v.805l2.823 1.208v.015l-2.823 1.204v.806l3.652-1.67zm1.719-.034h1.99v1h-1.99z"/></g></svg><svg width="16" height="14" x="616" y="324" xmlns="http://www.w3.org/2000/svg"><defs><linearGradient x1="0%" y1="100%" x2="98.469%" y2="1.531%" id="B"><stop stop-color="#CA327E" offset="0%"/><stop stop-color="#F73455" offset="100%"/></linearGradient></defs><path d="M6.222 3.564V.01L0 6.23l6.222 6.222V8.81c4.445 0 7.556 1.422 9.778 4.533-.889-4.444-3.556-8.889-9.778-9.778z" fill="url(#B)"/></svg><svg width="16" height="16" x="855" y="664" xmlns="http://www.w3.org/2000/svg"><defs><linearGradient x1="0%" y1="100%" x2="98.469%" y2="1.531%" id="C"><stop stop-color="#CA327E" offset="0%"/><stop stop-color="#F73455" offset="100%"/></linearGradient></defs><path d="M410.456 1402.031c3.593 0 6.517 2.966 6.517 6.612 0 3.067-2.07 5.654-4.868 6.396a2.747 2.747 0 0 0-.825-.942l-.002-.002a11.21 11.21 0 0 1-.739-.576c2.613-.045 4.726-2.215 4.726-4.876 0-2.69-2.158-4.879-4.81-4.879a4.784 4.784 0 0 0-3.89 2.015 11.513 11.513 0 0 1-.037-.67v-.003a2.785 2.785 0 0 0-.415-1.388 6.44 6.44 0 0 1 4.343-1.687zm-.16 13.482c.374.303.542.806.31 1.204-.43.82-1.32 1.282-2.324 1.282-.952 0-2.005-.415-2.865-1.33a17.304 17.304 0 0 1-4.245-8.031c-.545-2.434.928-4.423 2.62-4.423.07 0 .141.004.212.01.455.026.772.446.816.93.087.943.162 1.455.301 2.485.064.473-.14.944-.577 1.08l-.593.176a14.63 14.63 0 0 0 2.792 5.281l.473-.404a.815.815 0 0 1 .526-.188c.245 0 .484.115.68.299.665.624 1.13 1.026 1.874 1.629zm-1.8-6.748c.43-.406.582-.583.632-.658a.774.774 0 0 0 .143-.423c0-.147-.035-.253-.107-.327-.073-.073-.174-.109-.309-.109a.406.406 0 0 0-.309.116.407.407 0 0 0-.087.153.506.506 0 0 1-.528.342.496.496 0 0 1-.372-.237.51.51 0 0 1-.04-.444c.084-.215.206-.386.366-.51.265-.206.598-.31.99-.31.43 0 .777.122 1.028.363.254.242.382.547.382.907 0 .2-.036.394-.107.575-.07.179-.18.367-.33.56a5.105 5.105 0 0 1-.526.542 8.392 8.392 0 0 0-.486.479h.971c.264 0 .478.217.478.484a.482.482 0 0 1-.478.485h-2.15a.306.306 0 0 1-.243-.12.316.316 0 0 1-.058-.269c.049-.2.129-.395.239-.58.156-.261.45-.595.9-1.019zm4.304-2.407c.17 0 .31.141.31.314v2.317h.049c.252 0 .458.208.458.465a.462.462 0 0 1-.458.464h-.05v.335c0 .275-.22.5-.493.5a.497.497 0 0 1-.493-.5v-.335h-1.363c-.17 0-.31-.14-.31-.314v-.4c0-.086.026-.17.074-.243l1.661-2.466a.308.308 0 0 1 .256-.137h.359z" transform="translate(-401 -1402)" fill="url(#C)"/></svg><svg width="16" height="16" x="871" y="664" xmlns="http://www.w3.org/2000/svg"><defs><linearGradient x1="0%" y1="100%" x2="98.469%" y2="1.531%" id="D"><stop stop-color="#CA327E" offset="0%"/><stop stop-color="#F73455" offset="100%"/></linearGradient></defs><path d="M8 0a8 8 0 1 0 0 16A8 8 0 0 0 8 0zm2.792 12.053c-.24.108-.49.2-.748.27-.974.27-1.949.28-2.92-.037-1.172-.378-1.949-1.178-2.413-2.298-.089-.217-.148-.444-.217-.671h-.919A.276.276 0 0 1 3.3 9.04v-.619c0-.154.125-.276.276-.276h.76V7.64h-.76a.276.276 0 0 1-.276-.276v-.62c0-.154.125-.276.276-.276h.968l.033-.095c.26-.827.708-1.534 1.396-2.068.547-.425 1.179-.658 1.857-.767.964-.155 1.9-.023 2.805.333.059.023.115.049.17.082.218.128.274.29.179.523-.102.244-.204.49-.316.731-.096.208-.227.273-.451.224-.307-.069-.606-.165-.912-.227-.646-.132-1.288-.138-1.916.109-.54.214-.87.625-1.093 1.139-.004.006-.004.013-.004.02h1.88c.155 0 .277.125.277.276v.619a.276.276 0 0 1-.277.276H6.025c-.004.165 0 .33 0 .504h2.15c.154 0 .276.125.276.277v.619a.276.276 0 0 1-.277.276H6.212c.237.678.623 1.202 1.347 1.429.58.181 1.162.171 1.748.05.303-.063.6-.155.902-.225.237-.052.365.01.464.228.112.243.218.49.316.74.092.224.033.405-.197.51z" fill="url(#D)"/></svg><svg width="16" height="13" x="632" y="324" xmlns="http://www.w3.org/2000/svg"><defs><linearGradient x1="0%" y1="100%" x2="98.469%" y2="1.531%" id="E"><stop stop-color="#CA327E" offset="0%"/><stop stop-color="#F73455" offset="100%"/></linearGradient></defs><path d="M.571 5.736a.55.55 0 0 1-.401-.17.549.549 0 0 1-.17-.401V4.023a.55.55 0 0 1 .17-.402.549.549 0 0 1 .401-.17h13.704a.55.55 0 0 1 .402.17.55.55 0 0 1 .17.402v1.142a.549.549 0 0 1-.17.401.549.549 0 0 1-.402.17H.571zm0-3.426a.55.55 0 0 1-.401-.17.549.549 0 0 1-.17-.4V.597A.55.55 0 0 1 .17.195a.55.55 0 0 1 .4-.17h10.28a.55.55 0 0 1 .402.17.55.55 0 0 1 .17.402v1.142a.55.55 0 0 1-.17.401.55.55 0 0 1-.402.17H.571zm15.248 8.163a.55.55 0 0 1 .17.402v1.142a.55.55 0 0 1-.17.402.55.55 0 0 1-.402.169H.571a.55.55 0 0 1-.401-.17.55.55 0 0 1-.17-.401v-1.142a.55.55 0 0 1 .17-.402.549.549 0 0 1 .401-.17h14.846a.55.55 0 0 1 .402.17zM.57 9.162a.55.55 0 0 1-.401-.17.549.549 0 0 1-.17-.401V7.449a.55.55 0 0 1 .17-.402.549.549 0 0 1 .401-.17h11.42a.55.55 0 0 1 .402.17.55.55 0 0 1 .17.402V8.59a.549.549 0 0 1-.17.401.549.549 0 0 1-.402.17H.571z" fill="url(#E)"/></svg><svg width="12" height="14" x="887" y="664" xmlns="http://www.w3.org/2000/svg"><path d="M6.297 1.218C7.217.006 8.496 0 8.496 0s.19 1.14-.724 2.238c-.975 1.172-2.084.98-2.084.98s-.209-.922.61-2zm-.492 2.799c.473 0 1.351-.65 2.494-.65 1.968 0 2.742 1.4 2.742 1.4s-1.514.774-1.514 2.652c0 2.12 1.886 2.85 1.886 2.85s-1.318 3.71-3.1 3.71c-.817 0-1.453-.55-2.315-.55-.878 0-1.75.571-2.317.571C2.054 14 0 10.48 0 7.65c0-2.784 1.739-4.244 3.37-4.244 1.06 0 1.883.611 2.435.611z" fill="#323345"/></svg><svg width="480" height="324" x="480" y="340" xmlns="http://www.w3.org/2000/svg"><defs><linearGradient x1="0%" y1="100%" y2="0%" id="F"><stop stop-color="#48BFF3" offset="0%"/><stop stop-color="#7ABB2A" offset="100%"/></linearGradient></defs><path d="M0 293L480 65l-60.243 324z" transform="translate(0 -65)" fill="url(#F)" fill-rule="evenodd"/></svg><svg width="480" height="324" y="340" xmlns="http://www.w3.org/2000/svg"><defs><linearGradient x1="0%" y1="100%" x2="98.98%" y2="1.02%" id="G"><stop stop-color="#5D47FA" offset="0%"/><stop stop-color="#B84FEE" offset="100%"/></linearGradient></defs><path d="M0 293L480 65l-60.243 324z" transform="translate(0 -65)" fill="url(#G)" fill-rule="evenodd"/></svg><svg width="480" height="324" x="552" xmlns="http://www.w3.org/2000/svg"><defs><linearGradient x1="0%" y1="100%" x2="98.98%" y2="1.02%" id="H"><stop stop-color="#FF9F02" offset="0%"/><stop stop-color="#B84FEE" offset="100%"/></linearGradient></defs><path d="M0 293L480 65l-60.243 324z" transform="translate(0 -65)" fill="url(#H)" fill-rule="evenodd"/></svg></svg>